<?xml version="1.0"?>
<svg xmlns="http://www.w3.org/2000/svg" xmlns:xlink="http://www.w3.org/1999/xlink" xmlns:svgjs="http://svgjs.com/svgjs" version="1.1" width="512" height="512" x="0" y="0" viewBox="0 0 256 256" style="enable-background:new 0 0 512 512" xml:space="preserve" class=""><g><path xmlns="http://www.w3.org/2000/svg" d="m12.312 7.002h231.377c2.761 0 5 2.239 5 5v138.942c0 2.761-2.239 5-5 5h-231.377c-2.761 0-5-2.239-5-5v-138.942c0-2.761 2.238-5 5-5z" fill="#ffe2e2" data-original="#ffe2e2" style="" class=""/><path xmlns="http://www.w3.org/2000/svg" d="m82.937 224.417v19.58c0 2.761-2.239 5-5 5h-59.452c-2.761 0-5-2.239-5-5v-19.58c0-15.891 10.657-29.003 24.589-33.214 3.205-.981 6.602-1.507 10.131-1.507s6.926.526 10.131 1.507c14.531 4.472 24.601 17.825 24.601 33.214z" fill="#3193f3" data-original="#3193f3" style=""/><path xmlns="http://www.w3.org/2000/svg" d="m158.581 223.559v20.439c0 2.761-2.239 5-5 5h-53.226c-2.761 0-5-2.239-5-5v-20.439c0-17.481 14.198-31.608 31.609-31.608 17.463 0 31.617 14.173 31.617 31.608z" fill="#ff4a73" data-original="#ff4a73" style=""/><path xmlns="http://www.w3.org/2000/svg" d="m242.583 223.258v20.74c0 2.761-2.239 5-5 5h-57.597c-2.761 0-5-2.239-5-5v-20.74c0-18.666 15.161-33.792 33.792-33.792 18.601-.001 33.805 15.092 33.805 33.792z" fill="#3193f3" data-original="#3193f3" style=""/><path xmlns="http://www.w3.org/2000/svg" d="m82.94 224.42v19.58c0 2.76-2.24 5-5 5h-15c2.76 0 5-2.24 5-5v-19.58c0-15.39-10.07-28.74-24.6-33.22-.86-.26-1.74-.49-2.63-.69 2.41-.53 4.92-.81 7.49-.81 3.53 0 6.93.52 10.14 1.5 14.53 4.48 24.6 17.83 24.6 33.22z" fill="#307fed" data-original="#307fed" style=""/><path xmlns="http://www.w3.org/2000/svg" d="m55.71 190.51c-.89.19-1.77.43-2.64.69-13.93 4.21-24.59 17.33-24.59 33.22v19.58c0 2.76 2.24 5 5 5h-15c-2.76 0-5-2.24-5-5v-19.58c0-15.89 10.66-29.01 24.59-33.22 3.21-.98 6.61-1.5 10.13-1.5 2.58 0 5.09.28 7.51.81z" fill="#35b1fc" data-original="#35b1fc" style=""/><path xmlns="http://www.w3.org/2000/svg" d="m158.58 223.56v20.44c0 2.76-2.24 5-5 5h-15c2.76 0 5-2.24 5-5v-20.44c0-14.86-10.27-27.34-24.11-30.71 2.4-.59 4.91-.9 7.49-.9 17.47 0 31.62 14.17 31.62 31.61z" fill="#ea2a6a" data-original="#ea2a6a" style=""/><path xmlns="http://www.w3.org/2000/svg" d="m110.35 223.56v20.44c0 2.76 2.24 5 5 5h-15c-2.76 0-5-2.24-5-5v-20.44c0-17.48 14.2-31.61 31.61-31.61 2.59 0 5.1.31 7.51.9-13.82 3.36-24.12 15.82-24.12 30.71z" fill="#f973a3" data-original="#f973a3" style=""/><path xmlns="http://www.w3.org/2000/svg" d="m242.58 223.26v20.74c0 2.76-2.24 5-5 5h-15c2.76 0 5-2.24 5-5v-20.74c0-16.11-11.28-29.54-26.3-32.95 2.41-.55 4.92-.84 7.5-.84 18.6 0 33.8 15.09 33.8 33.79z" fill="#307fed" data-original="#307fed" style=""/><path xmlns="http://www.w3.org/2000/svg" d="m189.99 223.26v20.74c0 2.76 2.24 5 5 5h-15c-2.76 0-5-2.24-5-5v-20.74c0-18.67 15.16-33.79 33.79-33.79 2.58 0 5.09.29 7.5.84-15.03 3.41-26.29 16.86-26.29 32.95z" fill="#35b1fc" data-original="#35b1fc" style=""/><path xmlns="http://www.w3.org/2000/svg" d="m126.986 216.473c-15.815 0-28.635-12.82-28.635-28.635v-25.73c0-15.815 12.82-28.635 28.635-28.635 15.815 0 28.635 12.82 28.635 28.635v25.73c-.001 15.816-12.821 28.635-28.635 28.635z" fill="#87828e" data-original="#87828e" style=""/><path xmlns="http://www.w3.org/2000/svg" d="m155.62 162.11v25.73c0 15.81-12.82 28.63-28.63 28.63-2.6 0-5.11-.35-7.5-1 12.17-3.29 21.13-14.41 21.13-27.63v-25.73c0-7.91-3.2-15.07-8.39-20.25-3.48-3.48-7.85-6.07-12.74-7.39 2.39-.65 4.9-1 7.5-1 7.91 0 15.06 3.21 20.24 8.39 5.19 5.18 8.39 12.34 8.39 20.25z" fill="#796e84" data-original="#796e84" style=""/><path xmlns="http://www.w3.org/2000/svg" d="m134.49 215.47c-2.39.65-4.9 1-7.5 1-15.82 0-28.64-12.82-28.64-28.63v-25.73c0-15.82 12.82-28.64 28.64-28.64 2.6 0 5.11.35 7.5 1-12.18 3.29-21.14 14.42-21.14 27.64v25.73c0 13.22 8.96 24.34 21.14 27.63z" fill="#a4a4a5" data-original="#a4a4a5" style=""/><path xmlns="http://www.w3.org/2000/svg" d="m248.69 12v138.94c0 2.77-2.24 5-5 5h-15c2.76 0 5-2.23 5-5v-138.94c0-2.76-2.24-5-5-5h15c2.76 0 5 2.24 5 5z" fill="#ffcfcf" data-original="#ffcfcf" style=""/><path xmlns="http://www.w3.org/2000/svg" d="m27.31 155.94h-15c-2.76 0-5-2.23-5-5v-138.94c0-2.76 2.24-5 5-5h15c-2.76 0-5 2.24-5 5v138.94c0 2.77 2.24 5 5 5z" fill="#ffefee" data-original="#ffefee" style=""/><path xmlns="http://www.w3.org/2000/svg" d="m71.863 136.374c-5.283-5.283-12.571-8.545-20.632-8.545-4.761 0-9.251 1.148-13.222 3.172.158-2.071-.387-3.871-1.712-4.98-2.911-2.437-8.445-.622-12.359 4.055-2.798 3.343-4.001 7.237-3.402 10.08-2.602 1.117-4.525 5.007-4.525 9.648 0 5.512 2.71 9.981 6.052 9.981h.818c-.576 2.161-.888 4.429-.888 6.771 0 14.479 11.737 26.216 26.217 26.216 14.479 0 26.216-11.738 26.216-26.216 0-2.379-.323-4.681-.916-6.872.459.066.925.1 1.395.1h5.504v-2.786c-.001-8.06-3.263-15.348-8.546-20.624z" fill="#87828e" data-original="#87828e" style=""/><path xmlns="http://www.w3.org/2000/svg" d="m80.41 157v2.78h-5.51c-.47 0-.93-.03-1.39-.1.59 2.2.92 4.5.92 6.88 0 14.47-11.74 26.21-26.22 26.21-2.61 0-5.12-.38-7.5-1.09 10.83-3.22 18.72-13.25 18.72-25.12 0-2.38-.33-4.68-.92-6.88.46.07.92.1 1.39.1h5.51v-2.78c0-8.06-3.26-15.35-8.55-20.63-3.58-3.58-8.09-6.23-13.13-7.56 2.39-.64 4.91-.98 7.5-.98 8.06 0 15.35 3.26 20.63 8.54 5.29 5.28 8.55 12.57 8.55 20.63z" fill="#796e84" data-original="#796e84" style=""/><path xmlns="http://www.w3.org/2000/svg" d="m55.71 191.68c-2.38.71-4.89 1.09-7.5 1.09-14.48 0-26.22-11.73-26.22-26.21 0-2.35.31-4.61.89-6.77h-.82c-3.34 0-6.05-4.47-6.05-9.99 0-4.64 1.92-8.53 4.53-9.64-.6-2.85.6-6.74 3.4-10.08 3.91-4.68 9.45-6.5 12.36-4.06 1.32 1.11 1.87 2.91 1.71 4.98.11-.06.23-.11.34-.17-2.38 3.16-3.37 6.69-2.81 9.33-2.61 1.11-4.53 5-4.53 9.64 0 5.52 2.71 9.99 6.05 9.99h.82c-.58 2.16-.89 4.42-.89 6.77 0 11.87 7.89 21.9 18.72 25.12z" fill="#a4a4a5" data-original="#a4a4a5" style=""/><path xmlns="http://www.w3.org/2000/svg" d="m227.474 39.928c4.146 9.214 4.146 19.828 0 29.042-.473 1.051-1.74 1.486-2.761.95-14.905-7.824-26.132-13.723-26.088-13.699-1.427-.749-1.427-2.792 0-3.541.633-.332 26.088-13.701 26.088-13.701 1.02-.537 2.288-.103 2.761.949z" fill="#ff4a73" data-original="#ff4a73" style=""/><path xmlns="http://www.w3.org/2000/svg" d="m39.542 51.57h45.502c1.105 0 2 .895 2 2v45.502h-45.502c-1.105 0-2-.895-2-2z" fill="#3193f3" data-original="#3193f3" style=""/><path xmlns="http://www.w3.org/2000/svg" d="m242.583 160.237c0-18.666-15.137-33.794-33.793-33.794-9.258 0-17.733 3.73-23.903 9.9-6.121 6.111-9.9 14.554-9.9 23.893v3.228h6.377c.736 0 1.461-.078 2.171-.215-.236 1.628-.363 3.682-.192 5.558.178 2.809.904 5.781 2.149 8.537-.009.009 0 .019.009.028 3.98 8.893 12.91 15.087 23.28 15.087 10.388 0 19.319-6.203 23.298-15.106.914-1.917 1.869-5.258 2.073-7.669.157-1 .269-3.625-.091-6.22h8.523z" fill="#87828e" data-original="#87828e" style=""/><path xmlns="http://www.w3.org/2000/svg" d="m242.58 163.46h-8.52c.348 2.526.256 5.22.09 6.22-.222 2.546-1.25 5.987-2.07 7.67-3.98 8.91-12.91 15.11-23.3 15.11-2.6 0-5.12-.39-7.49-1.12 11.098-3.411 19.12-14.316 17.89-26.91 0-.04-.01-.07-.01-.1-.03-.29-.07-.58-.11-.87h8.52v-3.22c0-16.09-11.23-29.54-26.28-32.96 2.388-.538 4.926-.84 7.49-.84 18.634 0 33.79 15.104 33.79 33.8z" fill="#796e84" data-original="#796e84" style=""/><path xmlns="http://www.w3.org/2000/svg" d="m216.29 191.34c-2.37.73-4.89 1.12-7.51 1.12-10.37 0-19.3-6.19-23.28-15.09-.01-.01-.02-.02-.01-.03-1.149-2.638-1.938-5.329-2.15-8.53-.163-2.019-.001-4.354.2-5.56-.71.14-1.44.21-2.18.21h-6.37v-3.22c0-9.34 3.78-17.79 9.9-23.9 6.192-6.192 14.689-9.9 23.9-9.9 2.488 0 4.98.26 7.51.84-6.33 1.43-11.98 4.63-16.41 9.06-6.12 6.11-9.9 14.56-9.9 23.9v3.22h6.37c.74 0 1.47-.07 2.18-.21-.06.36-.1.72-.14 1.08 0 .03-.01.06-.01.1-1.194 12.243 6.419 23.397 17.9 26.91z" fill="#a4a4a5" data-original="#a4a4a5" style=""/><path xmlns="http://www.w3.org/2000/svg" d="m190.983 26.665c3.473 2.748 6.273 5.982 8.41 9.501.599.987.236 2.277-.786 2.813-14.795 7.766-26.129 13.722-26.084 13.698-1.427.749-1.427 2.792 0 3.541 21.626 11.358 26.084 13.697 26.084 13.697 1.024.537 1.384 1.829.784 2.817-1.447 2.383-3.198 4.636-5.258 6.696-13.796 13.796-36.166 13.796-49.963 0-14.288-14.287-13.778-37.77 1.527-51.404 12.678-11.293 31.968-11.893 45.286-1.359z" fill="#f9d335" data-original="#f9d335" style=""/><path xmlns="http://www.w3.org/2000/svg" d="m213.62 56.22 15.54 8.16c-.45 1.56-1.02 3.09-1.69 4.59-.47 1.05-1.74 1.49-2.76.95-12.625-6.634-6.927-3.642-26.09-13.7-1.42-.75-1.42-2.79 0-3.54 19.15-10.051 13.489-7.078 26.09-13.7 1.02-.54 2.29-.1 2.76.95.67 1.5 1.24 3.03 1.69 4.59l-15.54 8.16c-1.42.75-1.42 2.79 0 3.54z" fill="#f973a3" data-original="#f973a3" style=""/><path xmlns="http://www.w3.org/2000/svg" d="m199.39 72.73c-1.45 2.39-3.2 4.64-5.26 6.7-8.81 8.82-21.13 12-32.48 9.55 6.41-1.38 12.5-4.57 17.48-9.55 2.06-2.06 3.81-4.31 5.26-6.7.6-.98.24-2.28-.78-2.81l-10.2-5.36-15.89-8.34c-1.42-.75-1.42-2.79 0-3.54l15.89-8.35 10.2-5.35c1.02-.54 1.38-1.83.78-2.81-2.13-3.52-4.93-6.76-8.41-9.5-4.29-3.39-9.19-5.63-14.29-6.73 10.03-2.15 20.86.05 29.29 6.73 3.48 2.74 6.28 5.98 8.41 9.5.6.98.24 2.27-.78 2.81-12.622 6.62-6.916 3.624-26.09 13.7-1.42.75-1.42 2.79 0 3.54 19.154 10.053 13.486 7.077 26.09 13.7 1.02.53 1.38 1.83.78 2.81z" fill="#f2c300" data-original="#f2c300" style=""/><path xmlns="http://www.w3.org/2000/svg" d="m159.17 79.43c4.98 4.98 11.08 8.16 17.48 9.55-11.35 2.45-23.66-.73-32.48-9.55-14.29-14.29-13.78-37.77 1.53-51.4 8.6-7.66 20.24-10.41 30.99-8.09-5.81 1.24-11.35 3.95-15.99 8.09-15.31 13.63-15.82 37.11-1.53 51.4z" fill="#f9e27d" data-original="#f9e27d" style="" class=""/><path xmlns="http://www.w3.org/2000/svg" d="m87.04 53.57v45.5h-15v-45.5c0-1.1-.89-2-2-2h15c1.11 0 2 .9 2 2z" fill="#307fed" data-original="#307fed" style=""/><path xmlns="http://www.w3.org/2000/svg" d="m56.54 99.07h-15c-1.1 0-2-.89-2-2v-45.5h15v45.5c0 1.11.9 2 2 2z" fill="#35b1fc" data-original="#35b1fc" style=""/><path xmlns="http://www.w3.org/2000/svg" d="m44.947 27.1c.77-1.333 2.694-1.333 3.464 0 .378.654 17.77 30.778 17.683 30.628.77 1.333-.192 3-1.732 3h-17.683-17.683c-1.54 0-2.502-1.667-1.732-3 .377-.655 17.769-30.778 17.683-30.628z" fill="#f9d335" data-original="#f9d335" style=""/><circle xmlns="http://www.w3.org/2000/svg" cx="74.167" cy="95.638" fill="#ff4a73" r="19.745" data-original="#ff4a73" style=""/><path xmlns="http://www.w3.org/2000/svg" d="m93.91 95.64c0 10.9-8.84 19.74-19.74 19.74-2.65 0-5.19-.52-7.5-1.48 7.18-2.95 12.24-10.01 12.24-18.26s-5.06-15.32-12.24-18.27c2.31-.96 4.85-1.48 7.5-1.48 10.9 0 19.74 8.84 19.74 19.75z" fill="#ea2a6a" data-original="#ea2a6a" style=""/><path xmlns="http://www.w3.org/2000/svg" d="m81.67 113.9c-2.31.96-4.85 1.48-7.5 1.48-10.91 0-19.75-8.84-19.75-19.74 0-10.91 8.84-19.75 19.75-19.75 2.65 0 5.19.52 7.5 1.48-7.19 2.95-12.25 10.02-12.25 18.27s5.06 15.31 12.25 18.26z" fill="#f973a3" data-original="#f973a3" style=""/><path xmlns="http://www.w3.org/2000/svg" d="m42.26 57.73c-.77 1.33.2 3 1.74 3h-15c-1.54 0-2.51-1.67-1.74-3 10.865-18.807 6.849-11.855 17.69-30.63.77-1.33 2.69-1.33 3.46 0l5.77 9.99c-3.972 6.884-1.525 2.646-11.92 20.64z" fill="#f9e27d" data-original="#f9e27d" style="" class=""/><g xmlns="http://www.w3.org/2000/svg" fill="#5f266d"><path d="m243.69 3h-231.38c-4.96 0-9 4.04-9 9v138.94c0 4.97 4.04 9 9 9h2.78c.89 1.2 1.96 2.17 3.14 2.83-.16 1.26-.24 2.52-.24 3.79 0 9.69 4.59 18.34 11.71 23.85-12.2 6.67-20.22 19.74-20.22 34.01v19.58c0 4.96 4.04 9 9 9h59.46c4.96 0 9-4.04 9-9v-19.58c0-14.46-7.87-27.33-20.21-34.01 7.11-5.52 11.7-14.16 11.7-23.85 0-.93-.05-1.85-.13-2.78h2.11c2.16 0 3.91-1.7 3.99-3.84h10.03c-.06.72-.08 1.44-.08 2.17v25.73c0 5.41 1.32 10.51 3.66 15-4.19 5.84-6.66 12.99-6.66 20.72v20.44c0 4.96 4.04 9 9 9h53.23c4.96 0 9-4.04 9-9v-20.44c0-7.71-2.46-14.85-6.64-20.68 2.35-4.5 3.68-9.62 3.68-15.04v-25.73c0-.73-.02-1.45-.08-2.17h11.45v3.52c0 2.21 1.79 4 4 4h4.28c.147 8.839 4.285 17.195 11.3 22.7-11.66 6.43-19.58 18.86-19.58 33.1v20.74c0 4.96 4.03 9 9 9h57.59c4.97 0 9-4.04 9-9v-20.74c0-14.24-7.92-26.67-19.59-33.1 6.678-5.234 11.011-13.132 11.31-22.7h4.28c2.21 0 4-1.79 4-4v-3.22c0-.26 0-.52-.01-.78 3.55-1.2 6.12-4.56 6.12-8.52v-138.94c0-4.96-4.04-9-9-9zm1 145.31c-4.82-14.65-18.28-25.28-34.52-25.84-9.545-.524-20.281 3.211-28.11 11.04-5.14 5.14-8.62 11.5-10.16 18.43h-13.9c-4.28-13.03-16.57-22.47-31.01-22.47-14.45 0-26.74 9.44-31.02 22.47h-11.94c-.4-2.64-1.12-5.21-2.13-7.65-1.64-3.97-4.08-7.62-7.21-10.75-9.236-9.221-22.418-11.804-33.79-8.07-.51-.96-1.19-1.81-2.04-2.52-4.862-4.055-12.737-1.713-17.99 4.56-2.74 3.27-4.33 7.15-4.47 10.66-2.7 2.52-4.39 6.83-4.39 11.63 0 .72.04 1.43.12 2.12-.47-.08-.82-.48-.82-.98v-138.94c0-.55.45-1 1-1h231.38c.55 0 1 .45 1 1zm-14.59 15.71c1.243 9.933-4.058 18.695-12.42 22.51-5.54 2.527-12.029 2.619-17.79 0-8.663-3.943-13.671-12.872-12.4-22.71.403-2.718-2.031-5.01-4.71-4.5-.981.2-1.718.14-3.78.14.185-7.338 3.059-14.645 8.72-20.29 5.764-5.775 13.407-8.73 21.07-8.73 16.024 0 29.365 12.556 29.78 29.02h-4.51c-2.369 0-4.302 2.103-3.96 4.56zm8.48 79.98c0 .55-.44 1-1 1h-57.59c-.56 0-1-.45-1-1v-20.74c0-13.19 8.61-24.4 20.51-28.3 6.027 2.002 12.555 1.998 18.57 0 11.9 3.9 20.51 15.11 20.51 28.3zm-84 0c0 .55-.45 1-1 1h-53.23c-.55 0-1-.45-1-1v-20.44c0-4.96 1.32-9.62 3.63-13.64 5.97 6.48 14.52 10.55 24.01 10.55 9.47 0 18.02-4.06 23.98-10.53 2.3 4.02 3.61 8.67 3.61 13.62zm-2.96-56.16c0 13.579-11.046 24.63-24.63 24.63-13.575 0-24.64-11.004-24.64-24.63 0-28.067-.038-26.496.1-27.9.984-12.241 11.446-22.47 24.54-22.47 13.213 0 23.558 10.374 24.53 22.47.139 1.404.1-.09.1 27.9zm-81.19-21.28c0 9-5.38 16.76-13.09 20.24-5.664 2.578-12.37 2.68-18.28-.01-7.7-3.48-13.07-11.24-13.07-20.23 0-1.94.26-3.87.76-5.74.568-2.059-.653-4.288-2.79-4.88-.656-.187-1.143-.15-1.84-.15-2.531-.77-3.017-10.629-.01-11.96 1.75-.75 2.73-2.63 2.34-4.5-.3-1.4.38-4.09 2.55-6.69 1.4-1.67 3.13-2.93 4.74-3.46 2.022-.656 2.408-.083 2.28 1.52-.237 3.099 3.02 5.276 5.81 3.87 9.398-4.804 21.248-3.321 29.2 4.63.01 0 .01 0 .01.01 3.53 3.53 5.89 7.93 6.85 12.73.27 1.26.43 2.54.49 3.84-3.256 0-3.331-.187-4.25.16-1.723.621-2.73 2.291-2.6 4 .007.19.9 3.49.9 6.62zm8.51 77.44c0 .55-.45 1-1 1h-59.46c-.55 0-1-.45-1-1v-19.58c0-13.23 8.68-25.16 21.19-29.2 6.077 2.046 12.862 2.09 19.07 0 12.7 4.17 21.2 15.83 21.2 29.2z" fill="#39393c" data-original="#5f266d" style="" class=""/><path d="m200.47 66.37-22.72-11.92 22.71-11.93c3.12-1.634 4.115-5.535 2.35-8.43-2.45-4.04-5.6-7.6-9.35-10.56-24.722-19.562-62.693-2.897-63.62 29.78-1.03 35.797 42.263 53.775 67.12 28.95 2.24-2.24 4.21-4.75 5.85-7.45 1.79-2.936.72-6.826-2.34-8.44zm-62.64-12.83c.787-26.353 31.224-39.116 50.67-23.74 2.44 1.93 4.55 4.16 6.31 6.66l-24.15 12.68c-4.276 2.246-4.277 8.373 0 10.62l24.14 12.68c-1.04 1.48-2.21 2.88-3.5 4.16-20.019 20.02-54.278 5.108-53.47-23.06z" fill="#39393c" data-original="#5f266d" style="" class=""/><path d="m231.12 70.61c4.538-10.077 4.689-21.907 0-32.32-1.393-3.14-5.209-4.464-8.27-2.85l-26.09 13.7c-4.278 2.258-4.273 8.364 0 10.62l26.09 13.7c3.044 1.61 6.861.304 8.27-2.85zm-6.49-5.25-20.77-10.91 20.77-10.91c2.61 7.03 2.61 14.78 0 21.82z" fill="#39393c" data-original="#5f266d" style="" class=""/><path d="m91.04 53.57c0-3.31-2.69-6-6-6h-20.19l-12.97-22.47c-2.309-3.992-8.09-3.993-10.4 0l-17.68 30.63c-2.305 3.985.58 9 5.2 9h6.54v32.34c0 3.31 2.69 6 6 6h10.08c3.12 9.46 12.05 16.31 22.55 16.31 21.076 0 31.616-25.546 16.87-40.43zm-44.36-21.47c6.205 10.749 9.384 16.258 14.22 24.63-39.52 0-5.753 0-28.44 0 3.771-6.53.726-1.254 14.22-24.63zm27.49 79.28c-9.175 0-16.187-7.821-15.74-16.31.3-8.42 7.24-15.18 15.74-15.18 8.561 0 15.74 6.972 15.74 15.75 0 8.631-7.021 15.74-15.74 15.74zm0-39.49c-12.91 0-23.44 10.35-23.74 23.18h-6.89v-30.34h20.82c4.603 0 7.513-5.001 5.2-9l-.09-.16h13.57v18.05c-2.74-1.12-5.73-1.73-8.87-1.73z" fill="#39393c" data-original="#5f266d" style="" class=""/><path d="m122 109.47h50c5.285 0 5.293-8 0-8h-50c-5.285 0-5.293 8 0 8z" fill="#39393c" data-original="#5f266d" style="" class=""/><path d="m172.89 115.17h-50c-5.284 0-5.295 8 0 8h50c5.285 0 5.293-8 0-8z" fill="#39393c" data-original="#5f266d" style="" class=""/><path d="m228.67 115.14v1.5c0 5.285 8 5.293 8 0v-1.5c0-5.285-8-5.293-8 0z" fill="#39393c" data-original="#5f266d" style="" class=""/><path d="m228.67 87.14v13c0 5.285 8 5.293 8 0v-13c0-5.285-8-5.293-8 0z" fill="#39393c" data-original="#5f266d" style="" class=""/></g></g></svg>
