<?xml version="1.0"?>
<svg xmlns="http://www.w3.org/2000/svg" xmlns:xlink="http://www.w3.org/1999/xlink" xmlns:svgjs="http://svgjs.com/svgjs" version="1.1" width="512" height="512" x="0" y="0" viewBox="0 0 512 512" style="enable-background:new 0 0 512 512" xml:space="preserve" class=""><g>
<g xmlns="http://www.w3.org/2000/svg">
	<rect x="239" y="422.003" style="" width="34" height="37.992" fill="#d97868" data-original="#d98868"/>
	<g>
		<g>
			<ellipse style="" cx="194.46" cy="366" rx="22.46" ry="26" fill="#d97868" data-original="#d98868"/>
			<ellipse style="" cx="317.54" cy="366" rx="22.46" ry="26" fill="#d97868" data-original="#d98868"/>
		</g>
		<path style="" d="M197.001,375.204V338.6c0-29.602,23.997-53.6,53.6-53.6h10.801c29.602,0,53.6,23.997,53.6,53.6    v36.605c0,31.367-25.428,56.796-56.796,56.796h-4.409C222.429,432,197.001,406.572,197.001,375.204z" fill="#ebad88" data-original="#ebad88"/>
		<path style="" d="M261.402,285h-10.801c-3.279,0-6.483,0.311-9.599,0.874c25.019,4.527,44,26.402,44,52.726v36.605    c0,26.965-18.798,49.524-44,55.33c4.114,0.948,8.393,1.465,12.795,1.465h4.409c31.367,0,56.796-25.428,56.796-56.795V338.6    C315.001,308.997,291.004,285,261.402,285z" fill="#e8916f" data-original="#e8916f"/>
		<g>
			<path style="" d="M318.099,353.511c-1.641,4.276-7.109,5.912-10.781,3.074     c-10.712-8.248-13.005-32.275-13.005-32.275c-17.929-10.282-20.91-21.586-20.91-21.586     c-10.363,17.168-55.719,21.586-55.719,21.586s-2.282,24.026-12.995,32.275c-3.671,2.838-9.139,1.201-10.781-3.074     c-5.05-13.12-1.991-29.201-1.991-29.201s1.826-43.872,41.345-50.418c41.918-6.934,49.202,7.416,49.202,7.416     c39.334,1.892,37.615,43.002,37.615,43.002S323.14,340.391,318.099,353.511z" fill="#8c4a37" data-original="#8c4a37"/>
		</g>
		<g>
			<path style="" d="M320.08,324.31c0,0,1.719-41.11-37.615-43.002c0,0-6.795-13.361-44.955-8.059     c6.071,1.269,9.81,3.283,12.031,4.981c2.543,1.944,5.58,3.163,8.751,3.683c27.899,4.573,31.365,31.188,31.754,39.746     c1.321,0.886,2.736,1.772,4.269,2.651c0,0,2.292,24.026,13.005,32.275c3.671,2.838,9.139,1.201,10.781-3.074     C323.14,340.391,320.08,324.31,320.08,324.31z" fill="#804231" data-original="#804231"/>
		</g>
	</g>
	<path style="" d="M320,496.519v7.981H192v-7.981c0-23.207,18.931-42.019,42.286-42.019h43.429   C301.069,454.5,320,473.312,320,496.519z" fill="#ff2c5c" data-original="#ff2c5c"/>
	<path style="" d="M277.714,454.5h-30c23.354,0,42.286,18.812,42.286,42.019v7.981h30v-7.981   C320,473.312,301.069,454.5,277.714,454.5z" fill="#e62753" data-original="#e62753"/>
	<rect x="239" y="157.503" style="" width="34" height="37.992" fill="#d97868" data-original="#d98868"/>
	<g>
		<g>
			<ellipse style="" cx="194.46" cy="101.5" rx="22.46" ry="26" fill="#d97868" data-original="#d98868"/>
			<ellipse style="" cx="317.54" cy="101.5" rx="22.46" ry="26" fill="#d97868" data-original="#d98868"/>
		</g>
		<path style="" d="M197.001,110.704V74.1c0-29.602,23.997-53.6,53.6-53.6h10.801c29.602,0,53.6,23.997,53.6,53.6    v36.605c0,31.367-25.428,56.796-56.796,56.796h-4.409C222.429,167.5,197.001,142.072,197.001,110.704z" fill="#ebad88" data-original="#ebad88"/>
		<path style="" d="M261.402,20.5h-10.801c-3.279,0-6.483,0.311-9.599,0.874c25.019,4.527,44,26.402,44,52.726v36.605    c0,26.965-18.798,49.524-44,55.33c4.114,0.948,8.393,1.465,12.795,1.465h4.409c31.367,0,56.796-25.428,56.796-56.795V74.1    C315.001,44.497,291.004,20.5,261.402,20.5z" fill="#e8916f" data-original="#e8916f"/>
		<g>
			<path style="" d="M318.099,89.011c-1.641,4.276-7.109,5.912-10.781,3.074     c-10.712-8.248-13.005-32.275-13.005-32.275c-17.929-10.282-20.91-21.586-20.91-21.586     c-10.363,17.168-55.719,21.586-55.719,21.586s-2.282,24.026-12.995,32.275c-3.671,2.838-9.139,1.201-10.781-3.074     c-5.05-13.12-1.991-29.201-1.991-29.201s1.826-43.872,41.345-50.418c41.918-6.934,49.202,7.416,49.202,7.416     C321.799,18.7,320.08,59.81,320.08,59.81S323.14,75.891,318.099,89.011z" fill="#8c4a37" data-original="#8c4a37"/>
		</g>
		<g>
			<path style="" d="M320.08,59.81c0,0,1.719-41.11-37.615-43.002c0,0-6.795-13.361-44.955-8.059     c6.071,1.269,9.81,3.283,12.031,4.981c2.543,1.944,5.58,3.163,8.751,3.683c27.899,4.573,31.365,31.188,31.754,39.746     c1.321,0.886,2.736,1.772,4.269,2.651c0,0,2.292,24.026,13.005,32.275c3.671,2.838,9.139,1.201,10.781-3.074     C323.14,75.891,320.08,59.81,320.08,59.81z" fill="#804231" data-original="#804231"/>
		</g>
	</g>
	<path style="" d="M320,232.019V240H192v-7.981C192,208.812,210.931,190,234.286,190h43.429   C301.069,190,320,208.812,320,232.019z" fill="#ff2c5c" data-original="#ff2c5c"/>
	<path style="" d="M277.714,190h-30C271.069,190,290,208.812,290,232.019V240h30v-7.981   C320,208.812,301.069,190,277.714,190z" fill="#e62753" data-original="#e62753"/>
	<rect x="74.5" y="350.913" style="" width="34" height="37.992" fill="#d97868" data-original="#d98868"/>
	<g>
		<g>
			<ellipse style="" cx="29.96" cy="294.91" rx="22.46" ry="26" fill="#d97868" data-original="#d98868"/>
			<ellipse style="" cx="153.04" cy="294.91" rx="22.46" ry="26" fill="#d97868" data-original="#d98868"/>
		</g>
		<path style="" d="M32.501,304.115V267.51c0-29.602,23.997-53.6,53.6-53.6h10.801c29.602,0,53.6,23.997,53.6,53.6    v36.605c0,31.367-25.428,56.796-56.796,56.796h-4.409C57.929,360.91,32.501,335.482,32.501,304.115z" fill="#ebad88" data-original="#ebad88"/>
		<path style="" d="M96.902,213.91H86.101c-3.279,0-6.483,0.311-9.599,0.874c25.019,4.527,44,26.402,44,52.726v36.605    c0,26.965-18.798,49.524-44,55.33c4.114,0.948,8.393,1.465,12.795,1.465h4.409c31.367,0,56.796-25.428,56.796-56.795V267.51    C150.501,237.907,126.504,213.91,96.902,213.91z" fill="#e8916f" data-original="#e8916f"/>
		<g>
			<path style="" d="M153.599,282.421c-1.641,4.276-7.109,5.912-10.781,3.074     c-10.713-8.248-13.005-32.275-13.005-32.275c-17.929-10.282-20.91-21.586-20.91-21.586     c-10.363,17.168-55.719,21.586-55.719,21.586s-2.282,24.026-12.995,32.275c-3.671,2.838-9.139,1.201-10.781-3.074     c-5.05-13.12-1.991-29.201-1.991-29.201s1.826-43.872,41.345-50.418c41.918-6.934,49.202,7.416,49.202,7.416     c39.334,1.892,37.615,43.002,37.615,43.002S158.64,269.301,153.599,282.421z" fill="#8c4a37" data-original="#8c4a37"/>
		</g>
		<g>
			<path style="" d="M155.58,253.22c0,0,1.719-41.11-37.615-43.002c0,0-6.795-13.361-44.955-8.059     c6.071,1.269,9.81,3.283,12.031,4.981c2.543,1.944,5.58,3.163,8.751,3.683c27.899,4.573,31.365,31.188,31.754,39.746     c1.321,0.886,2.736,1.772,4.269,2.651c0,0,2.292,24.026,13.005,32.275c3.671,2.838,9.139,1.201,10.781-3.074     C158.64,269.301,155.58,253.22,155.58,253.22z" fill="#804231" data-original="#804231"/>
		</g>
	</g>
	<path style="" d="M155.5,425.429v7.981h-128v-7.981c0-23.207,18.931-42.019,42.286-42.019h43.429   C136.569,383.41,155.5,402.222,155.5,425.429z" fill="#47d5e6" data-original="#47d5e6"/>
	<path style="" d="M113.214,383.41h-30c23.354,0,42.286,18.812,42.286,42.019v7.981h30v-7.981   C155.5,402.222,136.569,383.41,113.214,383.41z" fill="#22c0d4" data-original="#22c0d4"/>
	<rect x="403.5" y="350.913" style="" width="34" height="37.992" fill="#d97868" data-original="#d98868"/>
	<g>
		<g>
			<ellipse style="" cx="358.96" cy="294.91" rx="22.46" ry="26" fill="#d97868" data-original="#d98868"/>
			<ellipse style="" cx="482.04" cy="294.91" rx="22.46" ry="26" fill="#d97868" data-original="#d98868"/>
		</g>
		<path style="" d="M361.501,304.115V267.51c0-29.602,23.997-53.6,53.6-53.6h10.801c29.602,0,53.6,23.997,53.6,53.6    v36.605c0,31.367-25.428,56.796-56.796,56.796h-4.409C386.929,360.91,361.501,335.482,361.501,304.115z" fill="#ebad88" data-original="#ebad88"/>
		<path style="" d="M425.902,213.91h-10.801c-3.279,0-6.483,0.311-9.599,0.874c25.019,4.527,44,26.402,44,52.726    v36.605c0,26.965-18.798,49.524-44,55.33c4.114,0.948,8.393,1.465,12.795,1.465h4.409c31.367,0,56.796-25.428,56.796-56.795    V267.51C479.501,237.907,455.504,213.91,425.902,213.91z" fill="#e8916f" data-original="#e8916f"/>
		<g>
			<path style="" d="M482.599,282.421c-1.641,4.276-7.109,5.912-10.781,3.074     c-10.712-8.248-13.005-32.275-13.005-32.275c-17.929-10.282-20.91-21.586-20.91-21.586     c-10.363,17.168-55.719,21.586-55.719,21.586s-2.282,24.026-12.995,32.275c-3.671,2.838-9.139,1.201-10.781-3.074     c-5.05-13.12-1.991-29.201-1.991-29.201s1.826-43.872,41.345-50.418c41.918-6.934,49.202,7.416,49.202,7.416     c39.334,1.892,37.615,43.002,37.615,43.002S487.64,269.301,482.599,282.421z" fill="#8c4a37" data-original="#8c4a37"/>
		</g>
		<g>
			<path style="" d="M484.58,253.22c0,0,1.719-41.11-37.615-43.002c0,0-6.795-13.361-44.955-8.059     c6.071,1.269,9.81,3.283,12.031,4.981c2.543,1.944,5.58,3.163,8.751,3.683c27.899,4.573,31.365,31.188,31.754,39.746     c1.321,0.886,2.736,1.772,4.269,2.651c0,0,2.292,24.026,13.005,32.275c3.671,2.838,9.139,1.201,10.781-3.074     C487.64,269.301,484.58,253.22,484.58,253.22z" fill="#804231" data-original="#804231"/>
		</g>
	</g>
	<path style="" d="M484.5,425.429v7.981h-128v-7.981c0-23.207,18.931-42.019,42.286-42.019h43.429   C465.569,383.41,484.5,402.222,484.5,425.429z" fill="#ffd659" data-original="#ffd659"/>
	<path style="" d="M442.214,383.41h-30c23.354,0,42.286,18.812,42.286,42.019v7.981h30v-7.981   C484.5,402.222,465.569,383.41,442.214,383.41z" fill="#ffbd54" data-original="#ffbd54"/>
	<g>
		<path d="M317.729,399.494c16.433-0.115,29.771-15.094,29.771-33.495c0-14.148-7.69-26.312-19.008-31.211    c-0.06-5.22-0.629-9.359-0.902-11.057c0.01-2.995-0.317-12.961-4.669-23.157c-4.698-11.006-14.854-24.245-36.687-26.499    c-5.482-5.434-19.674-13.295-54.2-7.585c-18.732,3.105-32.938,14.151-41.083,31.944c-5.294,11.567-6.317,22.422-6.492,25.004    c-0.247,1.47-0.887,5.796-0.951,11.352c-11.318,4.899-19.007,17.063-19.007,31.21c0,18.401,13.338,33.38,29.771,33.495    c6.871,16.764,20.595,29.731,37.229,35.951v11.637c-26.16,1.442-47,23.062-47,49.437v7.982c0,4.143,3.358,7.5,7.5,7.5h128    c4.142,0,7.5-3.357,7.5-7.5v-7.982c0-26.375-20.84-47.995-47-49.437v-11.635C297.133,429.228,310.857,416.26,317.729,399.494z     M321.933,383.682c0.9-6.808,0.444-10.362,0.567-23.178c2.253-2.579,3.236-5.678,4.139-9.146    c3.575,3.415,5.861,8.753,5.861,14.641C332.5,374.31,328.045,381.355,321.933,383.682z M199.414,324.62    c0.004-0.095,0.524-9.78,5.176-19.944c6.059-13.235,16.117-21.105,29.894-23.388c31.399-5.193,40.114,2.344,41.386,3.688    c1.026,2.727,3.238,3.681,6.231,3.824c13.226,0.636,22.009,6.282,26.852,17.264c3.899,8.842,3.637,17.868,3.635,17.932    c-0.075,1.797,1.386,7.116,0.772,15.751c0,0.002,0,0.005,0,0.008c-0.275,3.925-0.955,7.428-2.02,10.418    c-5.546-4.981-8.799-18.787-9.563-26.578c-0.232-2.421-1.624-4.58-3.733-5.79c-13.905-7.979-17.069-16.099-17.409-17.079    c-0.672-2.966-3.034-5.071-6.041-5.572c-3.038-0.517-6.027,1.058-7.615,3.691c-5.788,9.592-32.739,16.301-50.025,18    c-3.567,0.348-6.39,3.179-6.738,6.746c-0.012,0.125-1.271,12.597-5.847,21.424c-1.15,2.224-2.417,3.988-3.698,5.154    c-1.062-2.978-1.744-6.482-2.029-10.422C198.059,331.551,199.36,325.917,199.414,324.62z M179.5,365.999    c0-5.891,2.289-11.232,5.867-14.646c0.869,3.342,1.876,6.559,4.133,9.146c0.125,12.955-0.329,16.408,0.567,23.184    C183.955,381.355,179.5,374.31,179.5,365.999z M206.531,389.248c-1.348-4.548-2.031-9.274-2.031-14.049v-10.268    c1.699-0.489,3.319-1.293,4.768-2.412c3.239-2.496,6.073-6.067,8.42-10.608c3.647-7.034,5.606-15.347,6.588-20.853    c11.027-1.557,33.88-5.859,47.53-15.999c3.19,4.149,8.084,9.048,15.525,13.792c1.214,8.001,4.994,25.654,15.395,33.657    c1.45,1.123,3.074,1.922,4.774,2.414v10.278c0,4.774-0.683,9.501-2.03,14.046c-6.159,20.757-25.593,35.254-47.26,35.254h-4.41    C232.127,424.499,212.689,410.002,206.531,389.248z M312.5,496.518V497h-113v-0.481c0-19.033,15.605-34.519,34.786-34.519h43.429    C296.895,462,312.5,477.485,312.5,496.518z M265.5,446.999h-19v-7.931c5.261,0.61,13.703,0.615,19,0V446.999z" fill="#313236" data-original="#000000" style="" class=""/>
		<path d="M194.271,134.991c6.871,16.764,20.595,29.731,37.229,35.951v11.637c-26.16,1.442-47,23.062-47,49.437v7.982    c0,4.143,3.358,7.5,7.5,7.5h64c4.142,0,7.5-3.357,7.5-7.5s-3.358-7.5-7.5-7.5h-56.5v-0.481c0-19.033,15.605-34.519,34.786-34.519    h43.429c19.181,0,34.786,15.485,34.786,34.519v0.481h-24.167c-4.142,0-7.5,3.357-7.5,7.5s3.358,7.5,7.5,7.5H320    c4.142,0,7.5-3.357,7.5-7.5v-7.982c0-26.375-20.84-47.995-47-49.437v-11.635c16.633-6.219,30.357-19.186,37.229-35.953    c16.433-0.115,29.771-15.094,29.771-33.495c0-14.15-7.693-26.316-19.014-31.213c-0.056-5.236-0.622-9.358-0.896-11.057    c0.01-2.999-0.318-12.962-4.669-23.155c-4.697-11.006-14.854-24.245-36.684-26.501c-5.482-5.434-19.674-13.291-54.2-7.581    c-18.732,3.103-32.939,14.148-41.085,31.942c-5.294,11.563-6.319,22.415-6.495,25c-0.248,1.474-0.886,5.781-0.945,11.354    c-11.32,4.897-19.012,17.063-19.012,31.212C164.5,119.898,177.838,134.877,194.271,134.991z M265.5,182.497h-19v-7.931    c5.261,0.61,13.703,0.615,19,0V182.497z M258.21,159.997h-4.41c-21.673,0-41.111-14.497-47.269-35.251    c-1.348-4.548-2.031-9.274-2.031-14.049v-10.26c1.701-0.492,3.317-1.293,4.765-2.413c9.544-7.348,13.512-22.78,15.041-31.471    c11.037-1.56,33.863-5.859,47.503-15.992c3.19,4.148,8.083,9.045,15.526,13.788c1.213,8.003,4.99,25.654,15.397,33.666    c1.451,1.122,3.069,1.921,4.769,2.415v10.267c0,4.774-0.683,9.501-2.03,14.046C299.311,145.5,279.877,159.997,258.21,159.997z     M321.933,119.18c0.897-6.784,0.442-10.244,0.567-23.187c2.266-2.588,3.268-5.772,4.14-9.136c3.574,3.415,5.86,8.753,5.86,14.64    C332.5,109.808,328.045,116.853,321.933,119.18z M199.412,60.118c0.004-0.095,0.525-9.78,5.179-19.944    c6.06-13.236,16.119-21.105,29.896-23.387c31.399-5.194,40.116,2.342,41.388,3.686c1.027,2.725,3.237,3.679,6.23,3.822    c13.224,0.636,22.006,6.283,26.848,17.265c4.202,9.531,3.439,17.956,3.76,19.649c0.026,0.137,2.446,13.733-1.376,24.464    c-5.547-4.986-8.796-18.79-9.556-26.578c-0.231-2.423-1.624-4.583-3.735-5.794c-13.908-7.977-17.067-16.088-17.407-17.07    c-0.67-2.966-3.031-5.073-6.038-5.575c-3.039-0.511-6.028,1.057-7.618,3.689c-5.79,9.592-32.74,16.299-50.025,17.997    c-3.574,0.349-6.4,3.181-6.739,6.756c-0.624,6.568-3.757,21.349-9.547,26.574c-1.191-3.334-1.78-6.928-2.025-10.309    c-0.004-0.064-0.009-0.128-0.014-0.192C198.072,67.072,199.359,61.35,199.412,60.118z M185.365,86.852    c0.423,1.629,0.93,3.251,1.542,4.843c0.608,1.583,1.493,3.03,2.593,4.288c0.124,12.962-0.33,16.417,0.567,23.197    C178.486,114.771,175.703,96.077,185.365,86.852z" fill="#313236" data-original="#000000" style="" class=""/>
		<path d="M163,433.409v-7.982c0-26.375-20.84-47.995-47-49.437v-11.632c16.64-6.218,30.366-19.187,37.232-35.955    C169.664,328.287,183,313.308,183,294.908c0-14.15-7.693-26.316-19.014-31.213c-0.056-5.236-0.622-9.357-0.896-11.057    c0.01-2.999-0.318-12.962-4.669-23.155c-4.697-11.006-14.854-24.245-36.684-26.501c-5.482-5.433-19.674-13.291-54.2-7.581    c-4.839,0.802-9.43,2.147-13.647,3.999c-3.792,1.666-5.517,6.091-3.851,9.883c1.665,3.793,6.091,5.517,9.883,3.852    c3.073-1.35,6.46-2.338,10.065-2.935c31.398-5.195,40.116,2.342,41.388,3.686c1.027,2.725,3.237,3.679,6.23,3.822    c13.224,0.636,22.006,6.283,26.848,17.265c4.202,9.531,3.439,17.956,3.76,19.649c0.026,0.137,2.445,13.732-1.376,24.464    c-1.318-1.185-2.503-2.879-3.559-4.861c-0.099-0.214-0.207-0.423-0.325-0.625c-3.192-6.338-5.111-15.347-5.672-21.091    c-0.231-2.423-1.624-4.583-3.735-5.794c-13.908-7.977-17.067-16.088-17.407-17.07c-0.67-2.966-3.031-5.073-6.038-5.575    c-3.039-0.512-6.028,1.058-7.618,3.689c-5.79,9.592-32.74,16.299-50.025,17.997c-3.574,0.349-6.4,3.181-6.739,6.756    c-0.624,6.568-3.757,21.349-9.547,26.574c-1.191-3.334-1.78-6.928-2.025-10.309c-0.004-0.064-0.009-0.128-0.014-0.192    c-0.517-7.488,0.638-13.878,0.654-13.963c0.066-0.345,0.108-0.717,0.125-1.067c0.005-0.109,0.586-11.092,6.158-21.987    c1.886-3.689,0.425-8.207-3.263-10.093c-3.687-1.884-8.207-0.424-10.092,3.263c-6.4,12.517-7.568,24.828-7.756,27.608    c-0.248,1.475-0.886,5.781-0.945,11.353C7.692,268.594,0,280.759,0,294.908c0,18.4,13.337,33.379,29.768,33.495    C36.634,345.17,50.359,358.138,67,364.357v11.634c-26.16,1.442-47,23.062-47,49.437v7.982c0,4.143,3.358,7.5,7.5,7.5h128    C159.642,440.91,163,437.552,163,433.409z M157.433,312.592c0.897-6.783,0.442-10.244,0.567-23.186    c2.244-2.561,3.242-5.675,4.14-9.137c3.574,3.415,5.86,8.753,5.86,14.64C168,303.219,163.545,310.265,157.433,312.592z     M15,294.908c0-5.89,2.288-11.23,5.865-14.645c0.867,3.337,1.87,6.541,4.135,9.131c0.125,12.962-0.33,16.417,0.567,23.197    C19.455,310.265,15,303.219,15,294.908z M42.031,318.158C40.683,313.61,40,308.883,40,304.109v-10.26    c1.701-0.492,3.317-1.293,4.765-2.413c9.544-7.348,13.512-22.78,15.041-31.471c11.037-1.56,33.863-5.859,47.503-15.992    c3.19,4.148,8.083,9.045,15.526,13.788c0.784,5.173,2.653,14.368,6.677,22.395c0.169,0.42,0.375,0.82,0.614,1.198    c2.11,3.925,4.762,7.499,8.106,10.073c1.451,1.122,3.069,1.921,4.769,2.414v10.268c0,4.774-0.683,9.501-2.031,14.049    c-6.149,20.755-25.583,35.251-47.259,35.251H89.3C67.618,353.409,48.18,338.913,42.031,318.158z M101,367.979v7.93H82v-7.931    C87.261,368.589,95.712,368.591,101,367.979z M148,425.909H35v-0.481c0-19.033,15.605-34.519,34.786-34.519h43.429    c19.181,0,34.786,15.485,34.786,34.519V425.909z" fill="#313236" data-original="#000000" style="" class=""/>
		<path d="M482.232,328.403C498.664,328.287,512,313.308,512,294.908c0-14.15-7.693-26.316-19.014-31.213    c-0.056-5.236-0.622-9.357-0.896-11.057c0.01-2.999-0.318-12.962-4.669-23.155c-4.697-11.006-14.854-24.245-36.684-26.501    c-5.482-5.433-19.674-13.291-54.2-7.581c-18.732,3.103-32.939,14.148-41.085,31.942c-5.294,11.563-6.319,22.415-6.495,25    c-0.248,1.474-0.886,5.781-0.945,11.354C336.692,268.594,329,280.759,329,294.908c0,18.4,13.337,33.379,29.768,33.495    c6.866,16.767,20.591,29.735,37.232,35.953v11.634c-26.16,1.442-47,23.062-47,49.437v7.982c0,4.143,3.358,7.5,7.5,7.5h128    c4.142,0,7.5-3.357,7.5-7.5v-7.982c0-4.645-0.647-9.245-1.924-13.675c-1.148-3.981-5.304-6.275-9.284-5.128    c-3.98,1.147-6.276,5.304-5.129,9.284c0.888,3.077,1.337,6.28,1.337,9.519v0.481H364v-0.481c0-19.033,15.605-34.519,34.786-34.519    h43.429c6.092,0,12.083,1.583,17.327,4.578c3.596,2.053,8.178,0.803,10.232-2.793c2.054-3.597,0.804-8.178-2.793-10.233    c-6.702-3.828-14.249-6.032-21.98-6.462v-11.641C461.64,358.141,475.366,345.171,482.232,328.403z M486.433,312.592    c0.897-6.784,0.442-10.244,0.567-23.187c2.266-2.587,3.268-5.772,4.14-9.136c3.574,3.415,5.86,8.753,5.86,14.64    C497,303.219,492.545,310.265,486.433,312.592z M363.912,253.53c0.004-0.095,0.525-9.78,5.179-19.944    c6.06-13.236,16.119-21.105,29.896-23.387c31.399-5.195,40.116,2.342,41.388,3.686c1.027,2.725,3.237,3.679,6.23,3.822    c13.224,0.636,22.006,6.283,26.848,17.265c4.202,9.531,3.439,17.956,3.76,19.649c0.026,0.137,2.446,13.733-1.376,24.464    c-1.319-1.186-2.504-2.88-3.56-4.864c-0.098-0.213-0.206-0.42-0.323-0.622c-3.193-6.338-5.112-15.348-5.673-21.093    c-0.231-2.423-1.624-4.583-3.735-5.794c-13.908-7.977-17.067-16.088-17.407-17.07c-0.67-2.966-3.031-5.073-6.038-5.575    c-3.038-0.512-6.028,1.058-7.618,3.689c-5.79,9.592-32.74,16.299-50.025,17.997c-3.574,0.349-6.4,3.181-6.739,6.756    c-0.624,6.568-3.757,21.349-9.547,26.574c-1.191-3.334-1.78-6.928-2.025-10.309c-0.004-0.064-0.009-0.128-0.014-0.192    C362.572,260.484,363.859,254.761,363.912,253.53z M344,294.908c0-5.89,2.288-11.23,5.865-14.645    c0.867,3.337,1.87,6.541,4.135,9.131c0.125,12.962-0.33,16.417,0.567,23.197C348.455,310.265,344,303.219,344,294.908z     M371.031,318.158c-1.348-4.548-2.031-9.275-2.031-14.049v-10.26c1.701-0.492,3.317-1.293,4.765-2.413    c9.544-7.348,13.512-22.78,15.041-31.471c11.037-1.56,33.863-5.859,47.503-15.992c3.19,4.148,8.083,9.045,15.526,13.788    c1.741,11.485,6.233,26.61,15.397,33.666c1.451,1.122,3.069,1.921,4.769,2.414v10.268c0,4.774-0.683,9.501-2.031,14.049    C456.028,365.21,384.975,365.222,371.031,318.158z M430,375.909h-19v-7.931c5.177,0.601,13.801,0.603,19,0.001V375.909z" fill="#313236" data-original="#000000" style="" class=""/>
		<path d="M423.404,452.495c-4.142,0-7.5,3.357-7.5,7.5V472H353.8c-4.142,0-7.5,3.357-7.5,7.5s3.358,7.5,7.5,7.5h69.604    c4.142,0,7.5-3.357,7.5-7.5v-19.505C430.904,455.852,427.546,452.495,423.404,452.495z" fill="#313236" data-original="#000000" style="" class=""/>
		<path d="M158.599,472H96.494v-12.005c0-4.143-3.358-7.5-7.5-7.5s-7.5,3.357-7.5,7.5V479.5c0,4.143,3.358,7.5,7.5,7.5h69.604    c4.142,0,7.5-3.357,7.5-7.5S162.741,472,158.599,472z" fill="#313236" data-original="#000000" style="" class=""/>
	</g>
</g>















</g></svg>
