<?xml version="1.0"?>
<svg xmlns="http://www.w3.org/2000/svg" xmlns:xlink="http://www.w3.org/1999/xlink" xmlns:svgjs="http://svgjs.com/svgjs" version="1.1" width="512" height="512" x="0" y="0" viewBox="0 0 512.002 512.002" style="enable-background:new 0 0 512 512" xml:space="preserve" class=""><g>
<polygon xmlns="http://www.w3.org/2000/svg" style="" points="7.501,7.5 67.501,150 184.501,150 244.501,7.5 " fill="#e18f4e" data-original="#e18f4e"/>
<polygon xmlns="http://www.w3.org/2000/svg" style="" points="184.501,150 67.501,150 7.501,292.5 244.501,292.5 " fill="#c27749" data-original="#c27749"/>
<polygon xmlns="http://www.w3.org/2000/svg" style="" points="97.501,97.5 7.501,7.5 7.501,292.5 97.501,202.5 " fill="#ffa754" data-original="#ffa754"/>
<polygon xmlns="http://www.w3.org/2000/svg" style="" points="154.501,97.5 154.501,202.5 244.501,292.5 244.501,7.5 " fill="#a45e43" data-original="#a45e43"/>
<rect xmlns="http://www.w3.org/2000/svg" x="37.501" y="37.5" style="" width="177" height="225" fill="#fff0d3" data-original="#fff0d3"/>
<polygon xmlns="http://www.w3.org/2000/svg" style="" points="144.501,77.5 114.501,150 144.501,222.5 174.501,222.5 174.501,77.5 " fill="#869e47" data-original="#869e47"/>
<rect xmlns="http://www.w3.org/2000/svg" x="77.5" y="77.5" style="" width="67" height="145" fill="#9db55f" data-original="#9db55f"/>
<path xmlns="http://www.w3.org/2000/svg" style="" d="M434.501,172.5l-55,14.998l30,105.002h45v-100C454.501,181.454,445.547,172.5,434.501,172.5z" fill="#084f6d" data-original="#084f6d"/>
<path xmlns="http://www.w3.org/2000/svg" style="" d="M384.501,172.5c-11.046,0-20,8.954-20,20v100h45V187.498L384.501,172.5z" fill="#116f97" data-original="#116f97"/>
<polygon xmlns="http://www.w3.org/2000/svg" style="" points="384.501,172.5 409.501,217.49 434.501,172.5 " fill="#ffffff" data-original="#ffffff"/>
<path xmlns="http://www.w3.org/2000/svg" style="" d="M454.501,262.5h-30l15,90h30v-50.335C469.501,286.954,463.83,273.075,454.501,262.5z" fill="#116f97" data-original="#116f97"/>
<path xmlns="http://www.w3.org/2000/svg" style="" d="M424.501,262.5h-60c-9.329,10.575-15,24.454-15,39.665V352.5h90v-50.335  C439.501,286.954,433.83,273.075,424.501,262.5z" fill="#1990c2" data-original="#1990c2" class=""/>
<path xmlns="http://www.w3.org/2000/svg" style="" d="M423.593,82.047L409.501,142.5c24.853,0,45-20.147,45-45L423.593,82.047z" fill="#ffb4a9" data-original="#ffb4a9" class=""/>
<path xmlns="http://www.w3.org/2000/svg" style="" d="M424.501,97.5c0-5.429-0.321-10.634-0.908-15.453l-41.095-20.546  c-10.928,8.21-17.997,21.278-17.997,35.998c0,24.853,20.147,45,45,45C417.785,142.5,424.501,122.353,424.501,97.5z" fill="#ffd9d4" data-original="#ffd9d4"/>
<g xmlns="http://www.w3.org/2000/svg">
	<circle style="" cx="409.5" cy="30" r="22.5" fill="#e18f4e" data-original="#e18f4e"/>
	<path style="" d="M409.501,52.5L424.4,92.332c9.413,3.341,19.543,5.168,30.101,5.168   C454.501,72.647,434.354,52.5,409.501,52.5z" fill="#e18f4e" data-original="#e18f4e"/>
</g>
<path xmlns="http://www.w3.org/2000/svg" style="" d="M409.501,52.5c-10.132,0-19.481,3.35-27.003,9.002c10.532,14.02,25.066,24.856,41.901,30.831  C423.545,69.915,417.202,52.5,409.501,52.5z" fill="#ffa754" data-original="#ffa754"/>
<path xmlns="http://www.w3.org/2000/svg" d="M244.501,315h-30c-4.142,0-7.5,3.358-7.5,7.5s3.358,7.5,7.5,7.5h30c4.142,0,7.5-3.358,7.5-7.5S248.643,315,244.501,315z" fill="#3f4450" data-original="#000000" style="" class=""/>
<path xmlns="http://www.w3.org/2000/svg" d="M244.501,0h-237c-4.142,0-7.5,3.358-7.5,7.5v285c0,4.142,3.358,7.5,7.5,7.5h237c4.142,0,7.5-3.358,7.5-7.5V7.5  C252.001,3.358,248.643,0,244.501,0z M15.001,25.606l15,15v218.787l-15,15C15.001,274.393,15.001,25.606,15.001,25.606z M45.001,255  V45h162v210H45.001z M211.395,30H40.607l-15-15h200.787L211.395,30z M40.607,270h170.787l15,15H25.607L40.607,270z M222.001,259.394  V40.606l15-15v248.787L222.001,259.394z" fill="#3f4450" data-original="#000000" style="" class=""/>
<path xmlns="http://www.w3.org/2000/svg" d="M174.501,70h-97c-4.142,0-7.5,3.358-7.5,7.5v145c0,4.142,3.358,7.5,7.5,7.5h97c4.142,0,7.5-3.358,7.5-7.5v-15  c0-4.142-3.358-7.5-7.5-7.5s-7.5,3.358-7.5,7.5v7.5h-82V85h82v92.5c0,4.142,3.358,7.5,7.5,7.5s7.5-3.358,7.5-7.5v-100  C182.001,73.358,178.643,70,174.501,70z" fill="#3f4450" data-original="#000000" style="" class=""/>
<path xmlns="http://www.w3.org/2000/svg" d="M512.001,242.5c0-29.486-22.313-53.846-50.938-57.115c-3.127-11.664-13.747-20.29-26.363-20.38  c-0.061-0.002-0.122-0.005-0.183-0.005c-0.016,0-50.016,0-50.016,0c-0.077,0.001-0.12,0.003-0.164,0.004  c-12.366,0.073-22.819,8.349-26.19,19.651c-42.056-3.735-75.146-39.144-75.146-82.155c0-4.142-3.357-7.5-7.5-7.5s-7.5,3.358-7.5,7.5  c0,50.897,39.204,92.804,89,97.125v60.134c-9.693,11.989-15,26.935-15,42.406V352.5c0,4.142,3.357,7.5,7.5,7.5h22.5v129.094  l-24.872,8.291c-3.929,1.31-6.053,5.557-4.743,9.487c1.048,3.143,3.974,5.13,7.114,5.13c0.786,0,1.586-0.125,2.373-0.387l30-10  c3.062-1.021,5.128-3.887,5.128-7.115V360h45v129.094l-24.872,8.291c-3.929,1.31-6.053,5.557-4.743,9.487  c1.048,3.143,3.974,5.13,7.114,5.13c0.786,0,1.586-0.125,2.373-0.387l30-10c3.062-1.021,5.128-3.887,5.128-7.115V360h22.5  c4.143,0,7.5-3.358,7.5-7.5v-50.335c0-2.216-0.121-4.419-0.336-6.606C497.758,286.72,512.001,265.764,512.001,242.5z M421.753,180  l-12.252,22.049L397.249,180H421.753z M380.467,180.681l22.479,40.452c1.322,2.38,3.832,3.857,6.556,3.857s5.233-1.477,6.556-3.857  l22.479-40.452c4.917,1.683,8.466,6.34,8.466,11.819V255h-30v-7.51c0-4.142-3.357-7.5-7.5-7.5s-7.5,3.358-7.5,7.5V255h-30v-58.769  c0.633-1.1,1-2.371,1-3.731c0-1.063-0.224-2.073-0.623-2.99C373.399,185.373,376.476,182.047,380.467,180.681z M462.001,345h-105  v-42.835c0-11.687,3.905-22.982,11.038-32.165h82.924c7.133,9.183,11.038,20.478,11.038,32.165V345z M473.431,280.55  c-2.539-7.502-6.384-14.55-11.43-20.792v-59.083c19.868,3.554,35,20.949,35,41.824C497.001,258.744,487.608,273.462,473.431,280.55z  " fill="#3f4450" data-original="#000000" style="" class=""/>
<path xmlns="http://www.w3.org/2000/svg" d="M409.501,150c28.948,0,52.5-23.551,52.5-52.5c0-20.965-12.356-39.091-30.165-47.499c4.762-5.312,7.665-12.323,7.665-20.001  c0-16.542-13.458-30-30-30s-30,13.458-30,30c0,7.678,2.903,14.689,7.665,20.001c-17.808,8.408-30.165,26.534-30.165,47.499  C357.001,126.449,380.553,150,409.501,150z M446.152,89.58c-20.154-2-38.58-11.212-52.297-26.147  C398.62,61.236,403.918,60,409.501,60C427.461,60,442.506,72.694,446.152,89.58z M394.501,30c0-8.271,6.729-15,15-15s15,6.729,15,15  s-6.729,15-15,15S394.501,38.271,394.501,30z M381.701,72.361c16.692,18.804,39.576,30.244,64.607,32.299  C442.955,121.924,427.73,135,409.501,135c-20.678,0-37.5-16.822-37.5-37.5C372.001,87.837,375.676,79.017,381.701,72.361z" fill="#3f4450" data-original="#000000" style="" class=""/>
<g xmlns="http://www.w3.org/2000/svg">
</g>
<g xmlns="http://www.w3.org/2000/svg">
</g>
<g xmlns="http://www.w3.org/2000/svg">
</g>
<g xmlns="http://www.w3.org/2000/svg">
</g>
<g xmlns="http://www.w3.org/2000/svg">
</g>
<g xmlns="http://www.w3.org/2000/svg">
</g>
<g xmlns="http://www.w3.org/2000/svg">
</g>
<g xmlns="http://www.w3.org/2000/svg">
</g>
<g xmlns="http://www.w3.org/2000/svg">
</g>
<g xmlns="http://www.w3.org/2000/svg">
</g>
<g xmlns="http://www.w3.org/2000/svg">
</g>
<g xmlns="http://www.w3.org/2000/svg">
</g>
<g xmlns="http://www.w3.org/2000/svg">
</g>
<g xmlns="http://www.w3.org/2000/svg">
</g>
<g xmlns="http://www.w3.org/2000/svg">
</g>
</g></svg>
