<?xml version="1.0"?>
<svg xmlns="http://www.w3.org/2000/svg" xmlns:xlink="http://www.w3.org/1999/xlink" xmlns:svgjs="http://svgjs.com/svgjs" version="1.1" width="512" height="512" x="0" y="0" viewBox="0 0 64 64" style="enable-background:new 0 0 512 512" xml:space="preserve" class=""><g><g xmlns="http://www.w3.org/2000/svg"><g><g><path d="m62 10v8c0 1.1-.9 2-2 2h-4l-3.59 3.59c-.26.26-.62.41-1 .41-.78 0-1.41-.63-1.41-1.41v-2.59h-2c-1.1 0-2-.9-2-2v-8c0-1.1.9-2 2-2h12c1.1 0 2 .9 2 2z" fill="#e6e9ed" data-original="#e6e9ed" style=""/></g><g><path d="m13.34 52.68.66 1.32-3.26 1.09c-1.36.45-2.34 1.57-2.64 2.92l-.07-.01h-2.03c-1.1 0-2-.9-2-2v-4h9l.02-.01c.1.23.21.46.32.69z" fill="#ccd1d9" data-original="#ccd1d9" style="" class=""/></g><g><path d="m30 52v4c0 1.1-.9 2-2 2h-2.03l-.07.01c-.3-1.35-1.28-2.47-2.64-2.92l-3.26-1.09.66-1.32c.11-.23.22-.46.32-.69l.02.01z" fill="#ccd1d9" data-original="#ccd1d9" style="" class=""/></g><g><path d="m42 52v2l-1.79.89c-1.21.61-2.02 1.79-2.18 3.11h-2.03c-1.1 0-2-.9-2-2v-4z" fill="#ccd1d9" data-original="#ccd1d9" style="" class=""/></g><g><path d="m60 52v4c0 1.1-.9 2-2 2h-2.03c-.16-1.32-.97-2.5-2.18-3.11l-1.79-.89v-2z" fill="#ccd1d9" data-original="#ccd1d9" style="" class=""/></g><g><path d="m44.81 27.81c-1.17-1.17-2.7-1.92-4.35-2.13l-2.83-.35c-.3-.04-.59-.12-.86-.24l-.77 6.91-4-4-4 4-.78-7.01c-.24.1-.5.18-.77.22-1.01.14-2.23.38-3.45.79-2.39.8-4.77 2.86-5.65 3.68-.23-.37-.51-.71-.84-1.01l-4.34-3.86-.17.19-3.84 3.84 5 4.5c1.18 1.07 2.72 1.66 4.32 1.66 1 0 1.99-.23 2.88-.68l2.61-1.31c.02.13.03.27.03.4v12.59h24v-12.91c0-1.98-.79-3.88-2.19-5.28z" fill="#75c908" data-original="#b4dd7f" style="" class=""/></g><g><path d="m30 40v12h-9l-.02-.01c.67-1.57 1.02-3.27 1.02-4.99 0-1.38-.56-2.63-1.46-3.54-.91-.9-2.16-1.46-3.54-1.46s-2.63.56-3.54 1.46c-.9.91-1.46 2.16-1.46 3.54 0 1.72.35 3.42 1.02 4.99l-.02.01h-9v-12c0-1.1.9-2 2-2h17 5c1.1 0 2 .9 2 2z" fill="#69d6f4" data-original="#69d6f4" style="" class=""/></g><g><path d="m60 40v12h-8v-5c0-2.76-2.24-5-5-5-1.38 0-2.63.56-3.54 1.46-.9.91-1.46 2.16-1.46 3.54v5h-8v-12c0-1.1.9-2 2-2h5 6 11c1.1 0 2 .9 2 2z" fill="#69d6f4" data-original="#69d6f4" style="" class=""/></g><g><path d="m56 58.47v3.53h-18v-3.53c0-.16.01-.31.03-.47.16-1.32.97-2.5 2.18-3.11l1.79-.89v4h10v-4l1.79.89c1.21.61 2.02 1.79 2.18 3.11.02.16.03.31.03.47z" fill="#dda300" data-original="#fcd770" style="" class=""/></g><g><path d="m26 58.88v3.12h-18v-3.12c0-.3.03-.59.1-.87.3-1.35 1.28-2.47 2.64-2.92l3.26-1.09h6l3.26 1.09c1.36.45 2.34 1.57 2.64 2.92.07.28.1.57.1.87z" fill="#ef7923" data-original="#ff826e" style="" class=""/></g><g><path d="m22 47c0 1.72-.35 3.42-1.02 4.99-.1.23-.21.46-.32.69l-.66 1.32h-6l-.66-1.32c-.11-.23-.22-.46-.32-.69-.67-1.57-1.02-3.27-1.02-4.99 0-1.38.56-2.63 1.46-3.54.91-.9 2.16-1.46 3.54-1.46s2.63.56 3.54 1.46c.9.91 1.46 2.16 1.46 3.54z" fill="#b27946" data-original="#b27946" style=""/></g><g><path d="m52 54v4h-10v-4-2-5c0-1.38.56-2.63 1.46-3.54.91-.9 2.16-1.46 3.54-1.46 2.76 0 5 2.24 5 5v5z" fill="#b27946" data-original="#b27946" style=""/></g><g><path d="m28.54 23.85 3.46 4.15-4 4-.78-7.01c.55-.24 1.01-.64 1.32-1.14z" fill="#a0d468" data-original="#a0d468" style="" class=""/></g><g><path d="m36.77 25.09-.77 6.91-4-4 3.42-4.11c.32.52.79.94 1.35 1.2z" fill="#a0d468" data-original="#a0d468" style="" class=""/></g><g><path d="m40.74 12.56c.76.54 1.26 1.43 1.26 2.44 0 .83-.34 1.58-.88 2.12s-1.29.88-2.12.88h-1.35c.23-.63.35-1.3.35-2v-4h1c.65 0 1.25.21 1.74.56z" fill="#f0d0b4" data-original="#f0d0b4" style="" class=""/></g><g><path d="m42 8.66c0 1.4-.44 2.77-1.26 3.9-.49-.35-1.09-.56-1.74-.56h-1v-2h-.53c-2.94 0-5.84-.68-8.47-2l-.26.09c-1.64.54-2.74 2.07-2.74 3.79v.12h-1c-.65 0-1.25.21-1.74.56-.82-1.13-1.26-2.5-1.26-3.9 0-3.68 2.98-6.66 6.66-6.66h6.68c1.84 0 3.5.74 4.71 1.95s1.95 2.87 1.95 4.71z" fill="#656d78" data-original="#656d78" style=""/></g><g><path d="m38 12v4c0 .7-.12 1.37-.35 2-.47 1.35-1.42 2.48-2.65 3.2-.88.51-1.9.8-3 .8s-2.12-.29-3-.8c-.46-.27-.87-.59-1.24-.96-.63-.62-1.12-1.39-1.41-2.24-.23-.63-.35-1.3-.35-2v-4-.12c0-1.72 1.1-3.25 2.74-3.79l.26-.09c2.63 1.32 5.53 2 8.47 2h.53z" fill="#f0d0b4" data-original="#f0d0b4" style="" class=""/></g><g><path d="m35.42 23.89-3.42 4.11-3.46-4.15c.29-.47.46-1.02.46-1.6v-1.05c.88.51 1.9.8 3 .8s2.12-.29 3-.8v1.15c0 .55.15 1.08.42 1.54z" fill="#f0d0b4" data-original="#f0d0b4" style="" class=""/></g><g><path d="m26.35 18h-1.35c-1.66 0-3-1.34-3-3 0-.83.34-1.58.88-2.12.12-.12.24-.23.38-.32.49-.35 1.09-.56 1.74-.56h1v4c0 .7.12 1.37.35 2z" fill="#f0d0b4" data-original="#f0d0b4" style="" class=""/></g><g><path d="m12.17 24.81-.17.19-3.84 3.84-2.24-2.02c-.59-.52-.92-1.27-.92-2.05 0-.77.31-1.46.81-1.96s1.19-.81 1.96-.81h.18c.68 0 1.33.25 1.84.7z" fill="#f0d0b4" data-original="#f0d0b4" style="" class=""/></g></g><g><path d="m57 59h1c1.654 0 3-1.346 3-3v-16c0-1.654-1.346-3-3-3h-10v-3.906c0-2.262-.881-4.389-2.481-5.989-1.325-1.325-3.079-2.183-4.938-2.415l-2.829-.354c-.999-.125-1.752-.978-1.752-1.984v-.615c.991-.693 1.79-1.636 2.315-2.736h.685c2.206 0 4-1.794 4-4 0-1-.382-1.904-.99-2.605.639-1.141.99-2.41.99-3.733 0-4.225-3.437-7.663-7.663-7.663h-6.675c-4.224 0-7.662 3.438-7.662 7.663 0 1.323.351 2.593.99 3.732-.608.701-.99 1.605-.99 2.605 0 2.206 1.794 4 4 4h.685c.525 1.1 1.324 2.043 2.315 2.736v.509c0 .99-.725 1.839-1.687 1.974-1.304.184-2.525.464-3.63.832-2.026.675-4.003 2.152-5.211 3.173-.098-.102-.196-.205-.303-.3l-6.719-5.972c-.689-.614-1.578-.952-2.502-.952h-.18c-2.078 0-3.768 1.69-3.768 3.768 0 1.066.455 2.087 1.247 2.8l7.243 6.519c1.371 1.233 3.142 1.913 4.987 1.913 1.151 0 2.303-.272 3.333-.787l1.19-.595v2.382h-16c-1.654 0-3 1.346-3 3v16c0 1.654 1.346 3 3 3h1v2h-6v2h62v-2h-6zm-42.764-6.764c-.809-1.617-1.236-3.427-1.236-5.236 0-2.206 1.794-4 4-4s4 1.794 4 4c0 1.809-.427 3.619-1.236 5.236l-.382.764h-4.764zm7.317.895c.021-.042.035-.088.056-.131h7.391v3c0 .552-.449 1-1 1h-1.383c-.539-1.323-1.62-2.389-3.036-2.861l-2.171-.723zm5.447 5.869h1c1.654 0 3-1.346 3-3v-9h2v9c0 1.654 1.346 3 3 3h1v2h-10zm14-5.618-1.236.618c-1.249.625-2.146 1.714-2.539 3h-1.225c-.551 0-1-.448-1-1v-3h6zm-2 5.09c0-1.144.635-2.171 1.658-2.683l.342-.171v3.382h12v-3.382l.342.171c1.023.512 1.658 1.539 1.658 2.683v2.528h-16zm4-1.472v-10c0-2.206 1.794-4 4-4s4 1.794 4 4v10zm15 0h-1.224c-.393-1.286-1.29-2.375-2.539-3l-1.237-.618v-.382h6v3c0 .552-.449 1-1 1zm1-17v11h-6v-4c0-3.309-2.691-6-6-6s-6 2.691-6 6v4h-6v-11c0-.552.449-1 1-1h22c.551 0 1 .448 1 1zm-23.55-14.578c.081.067.168.126.254.187l-.468 4.213-1.883-1.883zm3.55-8.422h-.08c.047-.328.08-.66.08-1v-3c1.103 0 2 .897 2 2s-.897 2-2 2zm-14 0c-1.103 0-2-.897-2-2s.897-2 2-2v3c0 .34.033.672.08 1zm.084-6h-.084c-.483 0-.939.099-1.368.257-.413-.799-.632-1.681-.632-2.594 0-3.123 2.54-5.663 5.663-5.663h6.675c3.122 0 5.662 2.54 5.662 5.663 0 .913-.219 1.795-.632 2.594-.428-.158-.885-.257-1.368-.257v-2h-1.528c-2.772 0-5.547-.655-8.025-1.895l-.37-.185-.659.22c-1.759.586-3.016 2.082-3.334 3.86zm1.916 5v-4.117c0-1.251.771-2.362 1.933-2.804 2.515 1.19 5.285 1.848 8.067 1.915v5.006c0 2.757-2.243 5-5 5s-5-2.243-5-5zm5 7c.707 0 1.388-.107 2.032-.303.031.36.099.711.22 1.039l-2.252 2.702-2.28-2.736c.125-.319.198-.658.238-1.008.647.198 1.332.306 2.042.306zm-3.497 2.365 2.144 2.573-1.883 1.883-.479-4.309c.072-.049.15-.092.218-.147zm-22.503-.597c0-.975.793-1.768 1.768-1.768h.18c.434 0 .851.159 1.174.447l1.597 1.42-2.598 2.598-1.536-1.383c-.372-.335-.585-.814-.585-1.314zm16.707 5.525-1.414 1.414c.221.221.395.485.515.771l-1.892.946c-1.962.981-4.458.642-6.087-.823l-4.219-3.797 2.607-2.607 3.624 3.221c.737.656 1.159 1.597 1.159 2.582h2c0-.724-.15-1.431-.422-2.087 1.056-.911 2.919-2.358 4.738-2.964.921-.307 1.948-.539 3.038-.705l.881 7.935 4.765-4.764 4.764 4.764.871-7.841 2.698.337c1.42.178 2.76.833 3.772 1.845 1.222 1.221 1.895 2.846 1.895 4.574v3.906h-4v-3.586c0-.635.258-1.258.707-1.707l-1.414-1.414c-.834.833-1.293 1.942-1.293 3.121v3.586h-4c-1.654 0-3 1.346-3 3v5h-2v-5c0-1.654-1.346-3-3-3h-4v-3.586c0-1.179-.459-2.288-1.293-3.121zm-16.707 8.707h22c.551 0 1 .448 1 1v11h-6.622c.396-1.297.622-2.646.622-4 0-3.309-2.691-6-6-6s-6 2.691-6 6c0 1.354.226 2.703.622 4h-6.622v-11c0-.552.449-1 1-1zm-1 17v-3h7.391c.021.043.035.088.056.131l.143.285-2.172.723c-1.416.473-2.496 1.538-3.035 2.861h-1.383c-.551 0-1-.448-1-1zm4 2.883c0-1.293.824-2.437 2.051-2.847l3.11-1.036h5.679l3.109 1.036c1.227.41 2.051 1.554 2.051 2.847v2.117h-16z" fill="#3c3e42" data-original="#000000" style="" class=""/><path d="m49 11h10v2h-10z" fill="#3c3e42" data-original="#000000" style="" class=""/><path d="m49 15h10v2h-10z" fill="#3c3e42" data-original="#000000" style="" class=""/><path d="m60 7h-12c-1.654 0-3 1.346-3 3v8c0 1.654 1.346 3 3 3h1v1.586c0 1.331 1.083 2.414 2.414 2.414.645 0 1.251-.251 1.707-.707l3.293-3.293h3.586c1.654 0 3-1.346 3-3v-8c0-1.654-1.346-3-3-3zm1 11c0 .551-.449 1-1 1h-4.414l-3.879 3.879c-.238.238-.707.045-.707-.293v-3.586h-3c-.551 0-1-.449-1-1v-8c0-.551.449-1 1-1h12c.551 0 1 .449 1 1z" fill="#3c3e42" data-original="#000000" style="" class=""/></g></g></g></svg>
