<?xml version="1.0"?>
<svg xmlns="http://www.w3.org/2000/svg" xmlns:xlink="http://www.w3.org/1999/xlink" xmlns:svgjs="http://svgjs.com/svgjs" version="1.1" width="512" height="512" x="0" y="0" viewBox="0 0 512 512" style="enable-background:new 0 0 512 512" xml:space="preserve" class=""><g><g xmlns="http://www.w3.org/2000/svg"><path d="m406 52.5h-30v452h30c16.568 0 30-13.431 30-30v-392c0-16.569-13.432-30-30-30z" fill="#ff7e4f" data-original="#ff7e4f" style="" class=""/><path d="m406 474.5-120-188.5 120-188.5v-15c0-16.569-13.432-30-30-30h-45l-75 30-75-30h-75c-16.569 0-30 13.431-30 30v392c0 16.569 13.431 30 30 30h270c16.568 0 30-13.431 30-30z" fill="#ff9457" data-original="#ff9457" style=""/><path d="m406 444.5v30h-30l-45-90z" fill="#ffcf6e" data-original="#ffcf6e" style=""/><path d="m376 324.5v150h-270v-30z" fill="#ffe75e" data-original="#ffe75e" style=""/><path d="m406 204.5v240h-30l-120-240z" fill="#ffe75e" data-original="#ffe75e" style=""/><path d="m106 414.5v30h270v-240z" fill="#fff1a0" data-original="#fff1a0" style=""/><path d="m226 219.5 12.43 177.43 150-150z" fill="#ffffff" data-original="#ffffff" style=""/><path d="m376 97.5-60 167h30c16.57 0 31.57-6.72 42.43-17.57 10.85-10.86 17.57-25.86 17.57-42.43v-107z" fill="#fff1a0" data-original="#fff1a0" style=""/><path d="m346 97.5-90 15s-103.865-15-90-15h-60v317h90c16.57 0 31.57-6.72 42.43-17.57 10.85-10.86 17.57-25.86 17.57-42.43v-90h60c33.14 0 60-26.86 60-60v-107z" fill="#fff9d6" data-original="#fff9d6" style=""/><path d="m301 52.5-60 60h90v-60z" fill="#b5cdff" data-original="#b5cdff" style=""/><path d="m256 7.5c-24.85 0-45 20.15-45 45h-30v60h120v-60c0-24.85-20.15-45-45-45zm0 60c-8.284 0-15-6.716-15-15s6.716-15 15-15 15 6.716 15 15-6.716 15-15 15z" fill="#d4e2ff" data-original="#d4e2ff" style="" class=""/><path d="m346 97.5h-30l30 30h30c0-16.57-13.43-30-30-30z" fill="#a0b4de" data-original="#a0b4de" style=""/><path d="m316 97.5h-150c-16.57 0-30 13.43-30 30h210c0-16.57-13.43-30-30-30z" fill="#b5cdff" data-original="#b5cdff" style=""/><path d="m211 105h90c4.143 0 7.5-3.358 7.5-7.5s-3.357-7.5-7.5-7.5h-90c-4.142 0-7.5 3.358-7.5 7.5s3.358 7.5 7.5 7.5z" fill="#2d2c38" data-original="#000000" style="" class=""/><path d="m256 75c12.406 0 22.5-10.093 22.5-22.5s-10.094-22.5-22.5-22.5c-12.407 0-22.5 10.093-22.5 22.5s10.093 22.5 22.5 22.5zm0-30c4.136 0 7.5 3.364 7.5 7.5s-3.364 7.5-7.5 7.5-7.5-3.364-7.5-7.5 3.364-7.5 7.5-7.5z" fill="#2d2c38" data-original="#000000" style="" class=""/><path d="m406 45h-98.034c-3.651-25.409-25.564-45-51.966-45s-48.315 19.591-51.966 45h-98.034c-20.678 0-37.5 16.822-37.5 37.5v392c0 20.678 16.822 37.5 37.5 37.5h300c20.678 0 37.5-16.822 37.5-37.5v-392c0-20.678-16.822-37.5-37.5-37.5zm-195 15c4.142 0 7.5-3.358 7.5-7.5 0-20.678 16.822-37.5 37.5-37.5s37.5 16.822 37.5 37.5c0 4.142 3.357 7.5 7.5 7.5h22.5v37.5c0 4.142 3.357 7.5 7.5 7.5h15c9.778 0 18.119 6.27 21.215 15h-222.43c3.095-8.73 11.437-15 21.215-15h15c4.142 0 7.5-3.358 7.5-7.5v-37.5zm187.5 144.5c0 28.949-23.552 52.5-52.5 52.5h-90c-4.142 0-7.5 3.358-7.5 7.5v90c0 28.949-23.551 52.5-52.5 52.5h-82.5v-302h22.52c-4.719 6.272-7.52 14.064-7.52 22.5 0 4.142 3.358 7.5 7.5 7.5h240c4.143 0 7.5-3.358 7.5-7.5 0-8.436-2.801-16.228-7.52-22.5h22.52zm-285 247.5h285v15h-285zm285-15h-285v-15h82.5c18.61 0 35.485-7.57 47.707-19.792.022.022 150.023-149.978 150.023-149.978 1.67-1.715 3.263-3.505 4.77-5.369zm-135.379-75.375c.247-2.342.379-4.718.379-7.125v-82.5h82.5c2.407 0 4.783-.132 7.125-.379zm165.379 112.875c0 12.407-10.094 22.5-22.5 22.5h-300c-12.407 0-22.5-10.093-22.5-22.5v-392c0-12.407 10.093-22.5 22.5-22.5h67.5v30h-67.5c-4.142 0-7.5 3.358-7.5 7.5v377c0 4.142 3.358 7.5 7.5 7.5h300c4.143 0 7.5-3.358 7.5-7.5v-377c0-4.142-3.357-7.5-7.5-7.5h-67.5v-30h67.5c12.406 0 22.5 10.093 22.5 22.5z" fill="#2d2c38" data-original="#000000" style="" class=""/><path d="m211 105h90c4.143 0 7.5-3.358 7.5-7.5s-3.357-7.5-7.5-7.5h-90c-4.142 0-7.5 3.358-7.5 7.5s3.358 7.5 7.5 7.5z" fill="#2d2c38" data-original="#000000" style="" class=""/><path d="m256 75c12.406 0 22.5-10.093 22.5-22.5s-10.094-22.5-22.5-22.5c-12.407 0-22.5 10.093-22.5 22.5s10.093 22.5 22.5 22.5zm0-30c4.136 0 7.5 3.364 7.5 7.5s-3.364 7.5-7.5 7.5-7.5-3.364-7.5-7.5 3.364-7.5 7.5-7.5z" fill="#2d2c38" data-original="#000000" style="" class=""/><path d="m406 45h-98.034c-3.651-25.409-25.564-45-51.966-45s-48.315 19.591-51.966 45h-98.034c-20.678 0-37.5 16.822-37.5 37.5v392c0 20.678 16.822 37.5 37.5 37.5h300c20.678 0 37.5-16.822 37.5-37.5v-392c0-20.678-16.822-37.5-37.5-37.5zm-195 15c4.142 0 7.5-3.358 7.5-7.5 0-20.678 16.822-37.5 37.5-37.5s37.5 16.822 37.5 37.5c0 4.142 3.357 7.5 7.5 7.5h22.5v37.5c0 4.142 3.357 7.5 7.5 7.5h15c9.778 0 18.119 6.27 21.215 15h-222.43c3.095-8.73 11.437-15 21.215-15h15c4.142 0 7.5-3.358 7.5-7.5v-37.5zm187.5 144.5c0 28.949-23.552 52.5-52.5 52.5h-90c-4.142 0-7.5 3.358-7.5 7.5v90c0 28.949-23.551 52.5-52.5 52.5h-82.5v-302h22.52c-4.719 6.272-7.52 14.064-7.52 22.5 0 4.142 3.358 7.5 7.5 7.5h240c4.143 0 7.5-3.358 7.5-7.5 0-8.436-2.801-16.228-7.52-22.5h22.52zm-285 247.5h285v15h-285zm285-15h-285v-15h82.5c18.61 0 35.485-7.57 47.707-19.792.022.022 150.023-149.978 150.023-149.978 1.67-1.715 3.263-3.505 4.77-5.369zm-135.379-75.375c.247-2.342.379-4.718.379-7.125v-82.5h82.5c2.407 0 4.783-.132 7.125-.379zm165.379 112.875c0 12.407-10.094 22.5-22.5 22.5h-300c-12.407 0-22.5-10.093-22.5-22.5v-392c0-12.407 10.093-22.5 22.5-22.5h67.5v30h-67.5c-4.142 0-7.5 3.358-7.5 7.5v377c0 4.142 3.358 7.5 7.5 7.5h300c4.143 0 7.5-3.358 7.5-7.5v-377c0-4.142-3.357-7.5-7.5-7.5h-67.5v-30h67.5c12.406 0 22.5 10.093 22.5 22.5z" fill="#2d2c38" data-original="#000000" style="" class=""/></g></g></svg>
