<?xml version="1.0"?>
<svg xmlns="http://www.w3.org/2000/svg" xmlns:xlink="http://www.w3.org/1999/xlink" xmlns:svgjs="http://svgjs.com/svgjs" version="1.1" width="512" height="512" x="0" y="0" viewBox="0 0 512 512" style="enable-background:new 0 0 512 512" xml:space="preserve" class=""><g><g xmlns="http://www.w3.org/2000/svg"><g><path d="m388.938 504.5h-300.585c-9.741 0-17.638-7.897-17.638-17.638v-427.015c0-9.741 7.897-17.638 17.638-17.638h300.585c9.741 0 17.638 7.897 17.638 17.638v427.015c0 9.741-7.897 17.638-17.638 17.638z" fill="#c8effe" data-original="#c8effe" style="" class=""/><path d="m423.647 7.5h-300.585c-9.741 0-17.638 7.897-17.638 17.638v17.071h283.514c9.741 0 17.638 7.897 17.638 17.638v409.944h17.071c9.741 0 17.638-7.897 17.638-17.638v-427.015c0-9.741-7.897-17.638-17.638-17.638z" fill="#3c87d0" data-original="#3c87d0" style=""/><g fill="#7ca1b1"><path d="m165.692 157.454h-45.333c-3.314 0-6-2.686-6-6v-45.333c0-3.314 2.686-6 6-6h45.333c3.314 0 6 2.686 6 6v45.333c0 3.314-2.686 6-6 6z" fill="#7ca1b1" data-original="#7ca1b1" style=""/><path d="m165.692 253.832h-45.333c-3.314 0-6-2.686-6-6v-45.333c0-3.314 2.686-6 6-6h45.333c3.314 0 6 2.686 6 6v45.333c0 3.314-2.686 6-6 6z" fill="#7ca1b1" data-original="#7ca1b1" style=""/><path d="m165.692 350.21h-45.333c-3.314 0-6-2.686-6-6v-45.333c0-3.314 2.686-6 6-6h45.333c3.314 0 6 2.686 6 6v45.333c0 3.314-2.686 6-6 6z" fill="#7ca1b1" data-original="#7ca1b1" style=""/><path d="m165.692 442.591h-45.333c-3.314 0-6-2.686-6-6v-45.333c0-3.314 2.686-6 6-6h45.333c3.314 0 6 2.686 6 6v45.333c0 3.314-2.686 6-6 6z" fill="#7ca1b1" data-original="#7ca1b1" style=""/></g><g><path d="m155.301 287.703h175.382v58.843h-175.382z" fill="#d83131" transform="matrix(-.707 .707 -.707 -.707 639.054 369.543)" data-original="#d83131" style=""/><path d="m310.727 207.781-26.532 26.532 41.608 41.608 26.532-26.532c3.677-3.677 3.677-9.638 0-13.315l-28.293-28.293c-3.677-3.677-9.638-3.677-13.315 0z" fill="#f47c7c" data-original="#f47c7c" style=""/><path d="m201.79 399.935-41.608-41.608-17.463 52.267c-1.663 4.978 1.826 8.467 6.804 6.804z" fill="#f9c6c6" data-original="#f9c6c6" style=""/><path d="m155.301 287.703h175.382v58.843h-175.382z" fill="#d83131" transform="matrix(-.707 .707 -.707 -.707 639.054 369.543)" data-original="#d83131" style=""/><path d="m310.727 207.781-26.532 26.532 41.608 41.608 26.532-26.532c3.677-3.677 3.677-9.638 0-13.315l-28.293-28.293c-3.677-3.677-9.638-3.677-13.315 0z" fill="#f47c7c" data-original="#f47c7c" style=""/><path d="m201.79 399.935-41.608-41.608-17.463 52.267c-1.663 4.978 1.826 8.467 6.804 6.804z" fill="#f9c6c6" data-original="#f9c6c6" style=""/><path d="m166.083 313.733h175.382v28.346h-175.382z" fill="#ca2c2c" transform="matrix(.707 -.707 .707 .707 -157.536 275.487)" data-original="#ca2c2c" style=""/><path d="m352.335 236.074-20.044-20.044c3.677 3.677 3.677 9.638 0 13.315l-26.532 26.532 20.044 20.044 26.532-26.532c3.677-3.677 3.677-9.638 0-13.315z" fill="#ee6161" data-original="#ee6161" style=""/><path d="m181.746 379.891-32.384 10.82-6.643 19.883c-1.663 4.978 1.826 8.467 6.804 6.804l52.267-17.463z" fill="#f9b1b1" data-original="#f9b1b1" style=""/></g><path d="m388.938 42.209h-34.811c9.741 0 17.638 7.897 17.638 17.638v427.015c0 9.741-7.897 17.638-17.638 17.638h34.811c9.741 0 17.638-7.897 17.638-17.638v-427.015c0-9.741-7.897-17.638-17.638-17.638z" fill="#b3dafe" data-original="#b3dafe" style=""/></g><g><path d="m441.285 92.989c4.142 0 7.5-3.357 7.5-7.5v-60.35c0-13.862-11.277-25.139-25.138-25.139h-300.585c-13.861 0-25.138 11.277-25.138 25.139v9.57h-9.571c-13.861 0-25.138 11.277-25.138 25.139v321.316c0 4.143 3.358 7.5 7.5 7.5s7.5-3.357 7.5-7.5v-321.316c0-5.591 4.548-10.139 10.138-10.139h300.585c5.59 0 10.138 4.548 10.138 10.139v427.014c0 5.591-4.548 10.139-10.138 10.139h-300.585c-5.59 0-10.138-4.548-10.138-10.139v-70.697c0-4.143-3.358-7.5-7.5-7.5s-7.5 3.357-7.5 7.5v70.697c0 13.861 11.277 25.139 25.138 25.139h300.585c13.861 0 25.138-11.277 25.138-25.139v-9.57h9.571c13.861 0 25.138-11.277 25.138-25.139v-331.664c0-4.143-3.358-7.5-7.5-7.5s-7.5 3.357-7.5 7.5v331.663c0 5.591-4.548 10.139-10.138 10.139h-9.571v-402.443c0-13.861-11.277-25.139-25.138-25.139-15.182 0-259.808 0-276.014 0v-9.57c0-5.591 4.548-10.139 10.138-10.139h300.585c5.59 0 10.138 4.548 10.138 10.139v60.351c0 4.142 3.358 7.499 7.5 7.499z" fill="#39393c" data-original="#000000" style="" class=""/><path d="m197.432 128.788c0 4.143 3.358 7.5 7.5 7.5h159.333c4.142 0 7.5-3.357 7.5-7.5s-3.358-7.5-7.5-7.5h-159.333c-4.142 0-7.5 3.358-7.5 7.5z" fill="#39393c" data-original="#000000" style="" class=""/><path d="m106.858 247.832c0 7.444 6.056 13.5 13.5 13.5h45.333c7.444 0 13.5-6.056 13.5-13.5v-36.104l21.333-22.694c2.837-3.018 2.69-7.765-.328-10.602s-7.764-2.69-10.602.328l-13.862 14.746c-2.474-2.759-6.053-4.508-10.041-4.508h-45.333c-7.444 0-13.5 6.056-13.5 13.5zm57.334-1.5h-17.529l17.529-18.647zm-42.334-42.333h42.333v1.785l-22.08 23.488-13.442-20.481c-1.545-2.354-4.189-3.549-6.812-3.362v-1.43zm0 21.751 12.933 19.706c.206.313.44.601.686.876h-13.619z" fill="#39393c" data-original="#000000" style="" class=""/><path d="m189.595 84.928-12.765 13.579c-2.435-3.55-6.517-5.886-11.138-5.886h-45.333c-7.444 0-13.5 6.056-13.5 13.5v45.333c0 7.444 6.056 13.5 13.5 13.5h45.333c7.444 0 13.5-6.056 13.5-13.5v-33.559l21.333-22.694c2.837-3.018 2.69-7.765-.328-10.602s-7.765-2.69-10.602.329zm-67.737 65.026v-18.038l11.837 18.038zm42.334 0h-15.136l15.136-16.102zm0-38.003-22.08 23.488-13.441-20.482c-1.545-2.354-4.19-3.549-6.813-3.362v-3.974h42.333v4.33z" fill="#39393c" data-original="#000000" style="" class=""/><path d="m120.358 377.758c-7.444 0-13.5 6.056-13.5 13.5v45.334c0 7.444 6.056 13.5 13.5 13.5h45.333c7.444 0 13.5-6.056 13.5-13.5v-21.13l20.42-6.823c-1.347 1.356-2.18 3.223-2.18 5.285 0 4.143 3.358 7.5 7.5 7.5h163.331c4.142 0 7.5-3.357 7.5-7.5s-3.358-7.5-7.5-7.5h-162.656c.046-.028.094-.053.14-.083.016-.01.034-.019.05-.029.238-.156.467-.33.69-.516.075-.062.144-.13.216-.195.096-.087.196-.168.288-.26l76.298-76.298h80.978c4.142 0 7.5-3.357 7.5-7.5s-3.358-7.5-7.5-7.5h-65.978l32.716-32.716 26.533-26.533c6.028-6.029 6.527-15.506 1.532-22.129h5.197c4.142 0 7.5-3.357 7.5-7.5s-3.358-7.5-7.5-7.5h-19.938l-15.085-15.085c-6.595-6.594-17.327-6.594-23.921 0l-15.085 15.085h-85.304c-4.142 0-7.5 3.357-7.5 7.5s3.358 7.5 7.5 7.5h70.304l-96.044 96.044v-22.815l20.786-23.154c2.767-3.082 2.511-7.823-.571-10.591-3.082-2.767-7.824-2.512-10.591.571l-14.317 15.948c-2.367-2.045-5.442-3.292-8.808-3.292h-45.333c-7.444 0-13.5 6.056-13.5 13.5v45.333c0 7.444 6.056 13.5 13.5 13.5h32.054l-6.698 20.048h-25.357zm195.569-164.57c.748-.748 1.962-.747 2.708 0 10.751 10.75 17.516 17.516 28.293 28.292.747.747.747 1.962 0 2.708l-21.228 21.23-31.001-31.001c6.997-6.997 2.42-2.421 21.228-21.229zm-31.835 31.836 31.001 31.001-113.406 113.407-31.001-31.002zm-162.234 97.686v-21.916l13.697 19.863c.575.834 1.312 1.522 2.145 2.054h-15.842zm6.738-38.569c-1.568-2.274-4.168-3.405-6.737-3.214v-.55h42.13l-21.485 23.933zm17.166 38.569c.565-.361 1.091-.792 1.549-1.302l16.881-18.804v20.106zm17.588 29.599c9.329 9.329 15.055 15.055 24.46 24.459-14.257 4.763-22.698 7.583-36.732 12.272zm-11.554 52.306c12.184-4.071 9.859-3.294 12.396-4.142v14.618h-42.333v-42.334h18.844l-5.2 15.563c-3.638 10.892 5.491 19.903 16.293 16.295z" fill="#39393c" data-original="#000000" style="" class=""/></g></g></g></svg>
